#!OML:ASF H:\Terrain\Patient Classification 1\Walking\liu\liu.ASF
:FULLY-SPECIFIED
:DEGREES
220
root 8.94803 16.791 8.00813 6.05493 -4.33442 -1.04066
lowerback -5.20584 2.32354 -0.726309
upperback -1.56179 3.1082 1.52042
thorax 1.18547 1.55518 2.15596
lowerneck -21.6003 -2.60618 -11.487
upperneck 15.0563 -1.56698 7.77901
head 8.37464 -0.593789 4.32071
rclavicle 2.24813e-014 2.34566e-014
rhumerus -24.0789 16.2263 -81.5974
rradius 44.1342
rwrist -18.1258
rhand -34.3477 -24.7703
rfingers 7.12502
rthumb -7.5152 -54.6168
lclavicle 2.24813e-014 2.34566e-014
lhumerus -52.3921 18.4335 64.1081
lradius 4.57361
lwrist -36.2471
lhand -16.5911 -26.4229
lfingers 7.12502
lthumb 9.62989 3.33697
rfemur 6.82075 -1.92575 20.4697
rtibia 36.668
rfoot 16.6666 4.54504
rtoes -13.7662
lfemur -35.3011 5.1303 -24.39
ltibia 30.2314
lfoot -1.63408 5.08543
ltoes 0.881848
221
root 8.97225 16.8308 8.19982 5.87575 -4.60044 -0.44878
lowerback -5.0146 2.41605 -1.1815
upperback -1.16933 3.25615 1.30083
thorax 1.46331 1.6228 2.19568
lowerneck -23.4783 -2.87353 -11.3131
upperneck 15.8533 -1.72863 7.47173
head 8.9803 -0.675189 4.19092
rclavicle 1.49089e-015 -1.27222e-014
rhumerus -23.8291 15.9236 -81.6097
rradius 44.2251
rwrist -18.5192
rhand -34.0156 -23.5692
rfingers 7.12502
rthumb -7.19466 -53.4269
lclavicle 1.49089e-015 -1.27222e-014
lhumerus -51.0443 18.5472 64.9251
lradius 5.05603
lwrist -35.5729
lhand -16.4941 -26.4069
lfingers 7.12502
lthumb 9.7235 3.34863
rfemur 4.94946 -1.90539 19.5959
rtibia 40.5193
rfoot 17.8622 4.16728
rtoes -15.9067
lfemur -34.1274 4.98727 -24.9635
ltibia 29.9041
lfoot -2.3357 5.37363
ltoes 2.62056
222
root 8.99842 16.8709 8.39991 5.62083 -4.95878 0.144645
lowerback -4.56054 2.49831 -1.65902
upperback -1.71764 3.38772 1.1327
thorax 0.62317 1.70301 2.2563
lowerneck -21.9852 -2.79872 -11.4444
upperneck 15.9392 -1.74158 7.36277
head 8.75634 -0.727122 4.16511
rclavicle 2.56154e-014 0
rhumerus -25.4582 15.814 -82.2191
rradius 44.0407
rwrist -18.7139
rhand -34.1068 -23.1219
rfingers 7.12502
rthumb -7.28261 -52.9766
lclavicle 2.56154e-014 0
lhumerus -51.8593 17.7823 65.0218
lradius 5.95302
lwrist -34.7535
lhand -16.4155 -26.8491
lfingers 7.12502
lthumb 9.79925 2.90293
rfemur 3.18623 -1.73451 18.7473
rtibia 44.3263
rfoot 18.7429 3.48182
rtoes -17.0457
lfemur -32.6944 4.70153 -25.4784
ltibia 29.3693
lfoot -3.03359 5.92114
ltoes 4.8084
223
root 9.02929 16.9069 8.59483 5.53907 -5.23696 0.777005
lowerback -4.60854 2.49837 -2.14739
upperback -1.60545 3.41205 0.953047
thorax 0.746026 1.71324 2.35156
lowerneck -21.5547 -2.64611 -11.5744
upperneck 15.3016 -1.57693 7.62496
head 8.45091 -0.625072 4.28472
rclavicle -4.69178e-014 8.34896e-015
rhumerus -25.5886 15.5888 -82.503
rradius 43.8631
rwrist -18.8405
rhand -34.477 -24.8433
rfingers 7.12502
rthumb -7.64001 -54.6853
lclavicle -4.69178e-014 8.34896e-015
lhumerus -51.3407 17.7672 65.46
lradius 6.68722
lwrist -34.0199
lhand -16.5718 -27.6817
lfingers 7.12502
lthumb 9.64848 2.07732
rfemur 1.24727 -1.65418 17.8843
rtibia 47.9752
rfoot 19.5669 1.45803
rtoes -14.0219
lfemur -31.4287 4.50895 -26.2282
ltibia 28.684
lfoot -3.63548 6.27584
ltoes 4.28049
224
root 9.05278 16.9452 8.77922 5.61342 -5.53489 1.53615
lowerback -4.91714 2.46081 -2.80623
upperback -1.25629 3.40569 0.740657
thorax 1.25145 1.69774 2.52786
lowerneck -23.0376 -2.71874 -11.2464
upperneck 15.9182 -1.55511 7.29372
head 8.9075 -0.61778 4.13999
rclavicle 3.33275e-014 3.18055e-015
rhumerus -25.2367 15.5632 -82.6995
rradius 43.757
rwrist -19.1257
rhand -34.6056 -26.8351
rfingers 7.12502
rthumb -7.76413 -56.6726
lclavicle 3.33275e-014 3.18055e-015
lhumerus -50.161 18.0827 66.0387
lradius 7.28421
lwrist -33.3366
lhand -16.4572 -28.2144
lfingers 7.12502
lthumb 9.75909 1.53949
rfemur -0.936575 -1.58476 16.9611
rtibia 51.4901
rfoot 19.679 0.0413595
rtoes -14.3632
lfemur -30.4228 4.61641 -27.2071
ltibia 28.0098
lfoot -4.22145 6.4327
ltoes 2.5361
225
root 9.06812 16.9851 8.95532 5.77738 -5.87927 2.26854
lowerback -5.03099 2.48128 -3.45626
upperback -1.42353 3.47069 0.478512
thorax 1.11589 1.73398 2.62507
lowerneck -22.2806 -2.50667 -11.6888
upperneck 15.5915 -1.34464 7.97913
head 8.65218 -0.477424 4.47173
rclavicle -7.13451e-015 -6.75868e-015
rhumerus -25.9443 15.4943 -83.2328
rradius 43.5862
rwrist -19.3484
rhand -34.705 -27.3119
rfingers 7.12502
rthumb -7.86009 -57.1458
lclavicle -7.13451e-015 -6.75868e-015
lhumerus -50.0504 17.8001 66.2833
lradius 8.50947
lwrist -32.6546
lhand -16.1364 -28.5096
lfingers 7.12502
lthumb 10.0686 1.22949
rfemur -3.20264 -1.35046 16.1285
rtibia 54.8546
rfoot 18.8808 -0.962688
rtoes -16.4118
lfemur -29.5539 5.04145 -28.1579
ltibia 27.2471
lfoot -4.639 6.28677
ltoes 1.87253
226
root 9.08448 17.0106 9.12803 5.90252 -6.13579 2.52344
lowerback -4.89781 2.50756 -3.64102
upperback -1.97133 3.50075 0.404028
thorax 0.468948 1.77018 2.62831
lowerneck -20.3739 -2.24092 -11.9298
upperneck 14.9921 -1.15527 8.16332
head 8.10488 -0.405099 4.57056
rclavicle -1.12438e-015 2.34566e-014
rhumerus -27.4957 15.34 -83.8757
rradius 43.4069
rwrist -19.2482
rhand -34.5034 -26.6102
rfingers 7.12502
rthumb -7.66548 -56.4513
lclavicle -1.12438e-015 2.34566e-014
lhumerus -50.6125 17.2575 66.4
lradius 9.55626
lwrist -32.1539
lhand -16.1289 -29.2611
lfingers 7.12502
lthumb 10.0758 0.477728
rfemur -5.01057 -0.949496 15.8181
rtibia 57.9861
rfoot 16.7283 -3.81254
rtoes -11.2944
lfemur -28.6438 5.60215 -28.6188
ltibia 26.4954
lfoot -5.0336 5.9458
ltoes 1.86895
227
root 9.10659 17.053 9.30902 5.85897 -6.34334 2.68048
lowerback -5.09127 2.41251 -3.77592
upperback -1.47101 3.39707 0.441461
thorax 1.08905 1.6983 2.76322
lowerneck -22.1 -2.40892 -11.5384
upperneck 15.4553 -1.18837 7.55576
head 8.55451 -0.441056 4.31384
rclavicle 1.44429e-014 2.3059e-014
rhumerus -26.7547 15.6043 -83.9849
rradius 42.7717
rwrist -19.1484
rhand -33.6592 -25.5043
rfingers 7.12502
rthumb -6.8506 -55.3734
lclavicle 1.44429e-014 2.3059e-014
lhumerus -49.0163 17.9126 67.0783
lradius 9.808
lwrist -31.8026
lhand -16.1367 -29.8958
lfingers 7.12502
lthumb 10.0683 -0.156608
rfemur -7.40097 -1.48366 15.6611
rtibia 60.7783
rfoot 15.6111 -3.29467
rtoes -22.2266
lfemur -27.5003 5.83953 -28.8897
ltibia 25.8642
lfoot -5.57339 5.93908
ltoes 2.0933
228
root 9.12539 17.0824 9.49203 5.7086 -6.44776 3.03163
lowerback -5.21216 2.28494 -4.07462
upperback -1.29217 3.25135 0.432154
thorax 1.33521 1.61683 2.92451
lowerneck -22.2726 -2.3553 -11.6428
upperneck 15.547 -1.05679 7.524
head 8.60201 -0.38798 4.34096
rclavicle 2.16178e-014 1.19271e-014
rhumerus -26.7656 16.0975 -84.2494
rradius 42.1742
rwrist -19.1336
rhand -32.811 -24.9441
rfingers 7.12502
rthumb -6.03179 -54.8383
lclavicle 2.16178e-014 1.19271e-014
lhumerus -48.3311 18.1429 67.4883
lradius 10.5847
lwrist -31.3075
lhand -15.6284 -30.0638
lfingers 7.12502
lthumb 10.5586 -0.348992
rfemur -9.15585 -1.81982 15.24
rtibia 63.2704
rfoot 13.7335 -4.63081
rtoes -23.8714
lfemur -26.3955 5.65861 -29.2475
ltibia 25.4729
lfoot -6.24516 6.21699
ltoes 2.01153
229
root 9.13963 17.1177 9.66631 5.74348 -6.2956 2.80998
lowerback -5.00896 2.14708 -3.72025
upperback -1.7234 3.03219 0.474563
thorax 0.811642 1.52564 2.73681
lowerneck -21.0334 -2.03248 -11.6013
upperneck 15.5125 -0.791047 7.59133
head 8.34989 -0.271304 4.38127
rclavicle -1.97302e-014 0
rhumerus -27.9885 16.2502 -84.9032
rradius 41.8821
rwrist -18.9439
rhand -32.0822 -24.535
rfingers 7.12502
rthumb -5.32814 -54.4481
lclavicle -1.97302e-014 0
lhumerus -47.5267 14.1496 71.463
lradius 11.7737
lwrist -25.5053
lhand -15.3207 -29.5344
lfingers 7.12502
lthumb 10.8554 0.16507
rfemur -10.8849 -1.88111 15.6222
rtibia 65.377
rfoot 8.19887 -6.69279
rtoes -31.5563
lfemur -25.516 5.51788 -28.9903
ltibia 25.1237
lfoot -6.93215 6.12145
ltoes 1.97972
230
root 9.15398 17.1537 9.82674 6.06642 -6.01779 2.20219
lowerback -5.14845 1.9706 -3.00659
upperback -1.22437 2.77203 0.606847
thorax 1.45057 1.37652 2.47996
lowerneck -23.5658 -2.08263 -11.0995
upperneck 16.2751 -0.690219 7.3366
head 9.03123 -0.197023 4.26612
rclavicle -3.6154e-015 -9.14409e-015
rhumerus -27.1447 16.4345 -84.9807
rradius 41.5672
rwrist -18.8266
rhand -31.2305 -23.3169
rfingers 7.12502
rthumb -4.5057 -53.249
lclavicle -3.6154e-015 -9.14409e-015
lhumerus -44.7117 10.8026 75.4992
lradius 12.5897
lwrist -20.0586
lhand -15.3363 -29.2964
lfingers 7.12502
lthumb 10.8404 0.403787
rfemur -13.0125 -2.02446 16.5611
rtibia 67.1618
rfoot 8.85409 -8.86524
rtoes -21.0834
lfemur -25.0187 5.6202 -28.4363
ltibia 24.8668
lfoot -7.3926 5.71285
ltoes 1.41457
